<?xml version="1.0" standalone="no"?><!DOCTYPE svg PUBLIC "-//W3C//DTD SVG 1.1//EN" "http://www.w3.org/Graphics/SVG/1.1/DTD/svg11.dtd"><svg t="1576634989318" class="icon" viewBox="0 0 1024 1024" version="1.1" xmlns="http://www.w3.org/2000/svg" p-id="2169" xmlns:xlink="http://www.w3.org/1999/xlink" width="200" height="200"><defs><style type="text/css"></style></defs><path d="M690.666 354.582c11.583 0 23.023 0.851 34.403 2.122-30.91-143.967-184.816-250.914-360.507-250.914-196.401-0.001-357.302 133.87-357.302 303.861 0 98.124 53.525 178.701 142.989 241.196l-35.733 107.484 124.877-62.638c44.718 8.853 80.566 17.937 125.167 17.937 11.207 0 22.33-0.548 33.364-1.414-6.991-23.889-11.035-48.906-11.035-74.858 0.002-156.098 134.037-282.775 303.775-282.775zM498.538 257.712c26.896 0 44.717 17.693 44.717 44.585 0 26.779-17.822 44.715-44.717 44.715-26.779 0-53.643-17.937-53.643-44.715 0-26.892 26.865-44.583 53.643-44.583zM248.494 347.013c-26.781 0-53.817-17.937-53.817-44.715 0-26.892 27.038-44.583 53.817-44.583 26.777 0 44.601 17.693 44.601 44.583 0 26.778-17.824 44.715-44.601 44.715z" p-id="2170"></path><path d="M1016.739 633.055c0-142.841-142.93-259.279-303.484-259.279-169.999 0-303.889 116.439-303.889 259.279 0 143.099 133.89 259.277 303.889 259.277 35.588 0 71.495-8.987 107.228-17.938l97.985 53.669-26.865-89.285c71.726-53.801 125.136-125.148 125.136-205.722zM614.749 588.353c-17.794 0-35.761-17.692-35.761-35.744 0-17.808 17.968-35.732 35.76-35.732 27.011 0 44.719 17.924 44.719 35.732 0 18.053-17.708 35.744-44.718 35.744zM811.266 588.353c-17.679 0-35.5-17.692-35.5-35.744 0-17.808 17.822-35.732 35.501-35.732 26.779 0 44.715 17.924 44.715 35.732 0.001 18.053-17.936 35.744-44.715 35.744z" p-id="2171"></path></svg>