<?xml version="1.0" standalone="no"?><!DOCTYPE svg PUBLIC "-//W3C//DTD SVG 1.1//EN" "http://www.w3.org/Graphics/SVG/1.1/DTD/svg11.dtd"><svg t="1576636301967" class="icon" viewBox="0 0 1024 1024" version="1.1" xmlns="http://www.w3.org/2000/svg" p-id="712" xmlns:xlink="http://www.w3.org/1999/xlink" width="200" height="200"><defs><style type="text/css"></style></defs><path d="M512 989.184c263.68 0 477.184-213.504 477.184-477.184s-213.504-477.184-477.184-477.184-477.184 213.504-477.184 477.184 213.504 477.184 477.184 477.184" fill="#385988" p-id="713"></path><path d="M512 392.704c-65.536 0-119.296 53.248-119.296 119.296s53.248 119.296 119.296 119.296c65.536 0 119.296-53.248 119.296-119.296s-53.76-119.296-119.296-119.296z m0 196.608c-43.008 0-77.312-34.816-77.312-77.312s34.816-77.312 77.312-77.312c43.008 0 77.312 34.816 77.312 77.312s-34.304 77.312-77.312 77.312z m230.912-178.176c0-72.704-57.344-129.536-129.536-129.536 0 0-51.2-1.536-100.864-1.536s-99.328 1.536-99.328 1.536c-72.704 0-131.584 58.88-131.584 131.584 0 0-1.536 46.592-1.536 94.208 0 51.2 1.536 104.448 1.536 104.448 0 72.704 58.88 131.584 131.584 131.584 0 0 46.592 1.536 94.208 1.536 51.2 0 105.984-1.536 105.984-1.536 72.704 0 129.536-57.344 129.536-129.536 0 0 1.536-52.224 1.536-102.912 0-49.664-1.536-99.84-1.536-99.84z m-41.472 194.048c0 59.392-36.864 96.256-96.256 96.256 0 0-54.784 1.536-97.28 1.536-39.424 0-87.552-1.536-87.552-1.536-59.392 0-97.792-38.4-97.792-97.792 0 0-1.536-53.248-1.536-95.232 0-39.424 1.536-89.088 1.536-89.088 0-59.392 38.4-96.256 97.792-96.256 0 0 50.688-1.536 91.136-1.536s93.184 1.536 93.184 1.536c59.392 0 96.256 36.864 96.256 96.256 0 0 1.536 51.2 1.536 91.648 0 40.96-1.024 94.208-1.024 94.208z m-64.512-245.248c-15.872 0-28.672 12.8-28.672 28.672s12.8 28.672 28.672 28.672 28.672-12.8 28.672-28.672c0-15.872-12.8-28.672-28.672-28.672z" fill="#FFFFFF" p-id="714"></path></svg>