<?xml version="1.0" standalone="no"?><!DOCTYPE svg PUBLIC "-//W3C//DTD SVG 1.1//EN" "http://www.w3.org/Graphics/SVG/1.1/DTD/svg11.dtd"><svg t="1576635032351" class="icon" viewBox="0 0 1024 1024" version="1.1" xmlns="http://www.w3.org/2000/svg" p-id="2536" xmlns:xlink="http://www.w3.org/1999/xlink" width="200" height="200"><defs><style type="text/css"></style></defs><path d="M500.690997 553.349998v46.539108c-116.440849 0-210.449848-97.266736-210.449848-216.127619 0-118.860883 94.008999-216.127619 210.449848-216.127619 116.440849 0 210.449848 97.266736 210.449847 216.127619 0 118.860883-94.008999 216.127619-210.449847 216.127619v-46.539108z m0 0v-46.539109c64.317048 0 117.371631-54.916148 117.371631-123.049402 0-68.133255-53.054583-123.049402-117.371631-123.049402s-117.371631 54.916148-117.371631 123.049402c0 68.179794 53.054583 123.049402 117.371631 123.049402v46.539109zM500.690997 46.678726v46.539108c-153.579057 0-279.23465 130.030269-279.23465 290.543653 0 89.820479 52.123801 211.752943 139.896559 347.693678a2003.08976 2003.08976 0 0 0 139.338091 189.693406 2003.043221 2003.043221 0 0 0 139.33809-189.693406c87.772758-135.894196 139.89656-257.82666 139.89656-347.647139 0-160.559924-125.655592-290.590192-279.23465-290.590192V46.678726z m0 0V0.139617c205.702859 0 372.312866 172.380857 372.312866 383.62187 0 112.624642-57.987729 248.332682-154.742535 398.188611a2094.911421 2094.911421 0 0 1-160.559924 215.941462c-30.25042 34.811253-83.770395 34.811253-114.020815 0a2095.051038 2095.051038 0 0 1-160.559924-215.941462C186.365859 632.140708 128.37813 496.386129 128.37813 383.761487c0-211.194473 166.610008-383.62187 372.312867-383.62187v46.539109z" fill="#000000" p-id="2537"></path></svg>